# xmcd CD database file
#
# Track frame offsets:
#	150
#	13440
#	31110
#	48035
#	67432
#	79095
#	93322
#	110885
#	127505
#	145847
#	160845
#	178447
#	195192
#	208732
#
# Disc length: 3042 seconds
#
# Revision: 6
# Processed by: cddbd v1.5.2PL0 Copyright (c) Steve Scherf et al.
# Submitted via: jetAudio 7
#
DISCID=c10be00e
DTITLE=diversos - Suave Veneno - Nacional
DYEAR=0
DGENRE=Ambient
TTITLE0=Suave Veneno
TTITLE1=Mais Feliz
TTITLE2=Pela Vida Inteira
TTITLE3=É o Amor
TTITLE4=Frisson
TTITLE5=Sózinho
TTITLE6=Gostoso Veneno
TTITLE7=Canzone Per Te
TTITLE8=Bem Maior
TTITLE9=Nascente
TTITLE10=Firmamento
TTITLE11=Xereta
TTITLE12=Casa, Comida e paixão
TTITLE13=Tu Me Acostumbraste
EXTD=
EXTT0=
EXTT1=
EXTT2=
EXTT3=
EXTT4=
EXTT5=
EXTT6=
EXTT7=
EXTT8=
EXTT9=
EXTT10=
EXTT11=
EXTT12=
EXTT13=
PLAYORDER=
